<svg height="512pt" viewBox="-29 0 512 512.00124" width="512pt" xmlns="http://www.w3.org/2000/svg"><path d="m453.652344 501.886719c-9.011719-24.273438-28.285156-42.878907-52.882813-51.050781l-74.046875-24.542969-24.90625-8.273438c-2.859375-.949219-5.464844-2.417969-7.742187-4.367187-5.140625-4.394532-8.085938-10.789063-8.085938-17.542969v-19.675781l29.402344-26.648438c17.730469-16.074218 29.558594-37.9375 33.3125-61.5625.027344-.191406.050781-.382812.066406-.578125l3.71875-46.578125c.003907-.023437.007813-.046875.011719-.070312l3-37.644532c2.992188-37.523437-10.527344-74.359374-37.089844-101.0625-11.191406-11.246093-24.105468-20.179687-38.4375-26.621093v-18.226563c0-15.222656-6.257812-30.164062-17.164062-40.992187-10.789063-10.710938-24.90625-16.5468752-39.8125-16.449219-14.957032.109375-29.019532 5.992188-39.59375 16.566406-10.6875 10.691406-16.574219 24.898438-16.574219 39.996094l-.015625 12.902344c-.007812 5.882812-3.039062 11.4375-7.910156 14.492187-36.605469 22.953125-58.863282 62.070313-60.351563 104.503907-.097656.609374-.117187 1.222656-.0625 1.835937-.089843 4.324219.027344 8.679687.375 13.050781l1.910157 23.988282v.003906l4.8125 60.304687c.015624.195313.039062.390625.066406.582031 3.765625 23.636719 15.597656 45.5 33.320312 61.558594l29.167969 26.441406v19.882813c0 6.757813-2.949219 13.152344-8.089844 17.546875-2.277343 1.945312-4.878906 3.414062-7.738281 4.363281l-49.886719 16.554688c-3.929687 1.300781-6.0625 5.546875-4.757812 9.476562 1.042969 3.148438 3.972656 5.144531 7.117187 5.144531.785156 0 1.578125-.125 2.363282-.386718l49.898437-16.554688c4.707031-1.5625 8.996094-3.988281 12.75-7.199218 8.480469-7.246094 13.34375-17.796876 13.34375-28.945313v-6.367187c8.828125 7.265624 19.871094 11.242187 31.363281 11.242187h25.363282c11.398437 0 22.34375-3.914063 31.121093-11.058594v6.183594c0 11.148437 4.863281 21.703125 13.34375 28.945313 3.753907 3.210937 8.046875 5.636718 12.753907 7.199218l24.914062 8.277344 74.046875 24.542969c20.253906 6.726562 36.125 22.050781 43.546875 42.035156 1.125 3.023437 3.988281 4.890625 7.035156 4.890625.863282 0 1.746094-.148438 2.609375-.46875 3.878907-1.445312 5.859375-5.761719 4.414063-9.644531zm-113.105469-299.726563-1.75 21.929688-86.585937-82.648438 18.105468-5.179687c.207032-.058594.402344-.144531.605469-.207031l40.019531 37.6875c1.449219 1.363281 3.296875 2.039062 5.140625 2.039062 1.996094 0 3.984375-.792969 5.460938-2.359375 2.839843-3.015625 2.695312-7.761719-.320313-10.601563l-37.820312-35.617187c.664062-.894531 1.292968-1.816406 1.839844-2.804687 3.226562-5.820313 3.992187-12.550782 2.15625-18.945313l-3.070313-10.707031c8.523437 4.957031 16.375 11.015625 23.449219 18.125 23.46875 23.59375 35.414062 56.136718 32.769531 89.289062zm-173.675781-105.496094c9.339844-5.855468 14.925781-16.015624 14.9375-27.179687l.019531-12.910156c0-11.105469 4.324219-21.542969 12.183594-29.402344 7.769531-7.769531 18.097656-12.09375 29.089843-12.171875 10.882813-.082031 21.207032 4.21875 29.136719 12.09375 8.09375 8.035156 12.734375 19.09375 12.734375 30.347656v19.820313l-28.695312 25.527343c-3.09375 2.753907-3.371094 7.492188-.617188 10.585938 2.753906 3.097656 7.492188 3.371094 10.585938.621094l22.304687-19.84375 4.429688 15.4375c.730469 2.542968.425781 5.21875-.855469 7.53125-1.285156 2.316406-3.390625 3.992187-5.933594 4.71875l-30.921875 8.84375c-.003906.003906-.007812.003906-.011719.003906l-11.457031 3.277344.671875-.597656c3.097656-2.753907 3.371094-7.496094.621094-10.589844-2.753906-3.09375-7.496094-3.371094-10.589844-.617188l-99.976562 88.953125-.714844-8.953125c-.246094-3.117187-.351562-6.226562-.347656-9.316406l55.308594-52.144531c3.011718-2.84375 3.152343-7.589844.3125-10.601563-2.84375-3.015625-7.589844-3.152344-10.605469-.3125l-42.675781 40.242188c6.175781-29.953125 24.269531-56.558594 51.066406-73.363282zm72.992187 289.320313h-25.363281c-8.550781 0-16.75-3.164063-23.085938-8.90625l-42.367187-38.40625c-15.128906-13.707031-25.257813-32.351563-28.535156-52.519531l-4.492188-56.289063 81.9375-72.902343 37.539063-10.738282 101.761718 97.132813-3.414062 42.796875c-3.265625 20.15625-13.390625 38.796875-28.523438 52.519531l-42.382812 38.410156c-6.328125 5.742188-14.519531 8.902344-23.074219 8.902344zm0 0"/><path d="m75.429688 443.519531-22.078126 7.316407c-24.59375 8.171874-43.867187 26.777343-52.878906 51.050781-1.441406 3.882812.535156 8.203125 4.417969 9.644531.863281.320312 1.742187.46875 2.609375.46875 3.046875 0 5.910156-1.867188 7.035156-4.890625 7.421875-19.984375 23.292969-35.308594 43.542969-42.035156l22.074219-7.316407c3.929687-1.304687 6.0625-5.546874 4.757812-9.480468-1.300781-3.929688-5.546875-6.0625-9.480468-4.757813zm0 0"/><path d="m233.109375 339.257812c-1.664063.515626-3.371094.796876-5.132813.761719-1.871093-.007812-3.714843-.324219-5.484374-.9375-3.917969-1.355469-8.1875.722657-9.539063 4.636719-1.355469 3.917969.722656 8.1875 4.636719 9.539062 3.324218 1.148438 6.792968 1.742188 10.304687 1.761719h.171875c3.214844 0 6.40625-.484375 9.480469-1.4375 3.957031-1.222656 6.171875-5.425781 4.945313-9.382812-1.222657-3.957031-5.425782-6.171875-9.382813-4.941407zm0 0"/><path d="m212.289062 459.167969c-6.128906-4.390625-12.722656-7.074219-19.597656-7.964844-6.726562-.875-11.785156.214844-16.246094 1.175781-3.742187.808594-6.972656 1.503906-11.152343 1-4.632813-.558594-9.320313-2.511718-13.933594-5.804687-3.371094-2.402344-8.054687-1.625-10.460937 1.75-2.402344 3.371093-1.621094 8.054687 1.75 10.460937 6.679687 4.765625 13.691406 7.621094 20.847656 8.484375 6.679687.808594 11.691406-.273437 16.113281-1.226562 3.902344-.84375 6.988281-1.507813 11.148437-.96875 4.394532.570312 8.703126 2.351562 12.796876 5.285156 1.324218.949219 2.851562 1.402344 4.363281 1.402344 2.335937 0 4.636719-1.085938 6.101562-3.132813 2.414063-3.363281 1.636719-8.050781-1.730469-10.460937zm0 0"/><path d="m302.765625 447.574219c-4.613281 3.292969-9.300781 5.246093-13.933594 5.804687-4.179687.503906-7.410156-.191406-11.152343-1-4.460938-.960937-9.515626-2.050781-16.242188-1.175781-6.875.894531-13.46875 3.574219-19.601562 7.964844-3.367188 2.410156-4.140626 7.097656-1.730469 10.464843 1.464843 2.042969 3.769531 3.132813 6.105469 3.132813 1.511718 0 3.039062-.457031 4.359374-1.402344 4.097657-2.9375 8.40625-4.714843 12.800782-5.285156 4.160156-.542969 7.242187.125 11.148437.964844 4.421875.957031 9.433594 2.035156 16.109375 1.230469 7.15625-.863282 14.171875-3.71875 20.851563-8.488282 3.371093-2.40625 4.152343-7.089844 1.746093-10.460937-2.40625-3.371094-7.089843-4.15625-10.460937-1.75zm0 0"/><path d="m197.300781 239.652344c3.546875 2.136718 8.15625.988281 10.292969-2.5625 2.132812-3.546875.988281-8.15625-2.5625-10.292969-8.144531-4.898437-16.605469-7.488281-25.152344-7.703125-9.335937-.230469-18.570312 2.355469-27.464844 7.703125-3.550781 2.136719-4.695312 6.742187-2.5625 10.292969 1.410157 2.339844 3.890626 3.636718 6.4375 3.636718 1.3125 0 2.648438-.347656 3.855469-1.074218 6.410157-3.855469 12.917969-5.722656 19.359375-5.566406 5.917969.148437 11.90625 2.023437 17.796875 5.566406zm0 0"/><path d="m306.808594 237.089844c2.136718-3.546875.988281-8.15625-2.5625-10.292969-8.140625-4.898437-16.605469-7.488281-25.152344-7.703125-9.328125-.230469-18.570312 2.355469-27.460938 7.703125-3.550781 2.136719-4.699218 6.742187-2.5625 10.292969 1.40625 2.339844 3.886719 3.636718 6.433594 3.636718 1.316406 0 2.648438-.347656 3.859375-1.074218 6.40625-3.855469 12.914063-5.722656 19.355469-5.566406 5.917969.148437 11.90625 2.023437 17.796875 5.566406 3.550781 2.136718 8.15625.988281 10.292969-2.5625zm0 0"/><path d="m187.050781 253.050781c0 4.597657-3.730469 8.324219-8.328125 8.324219s-8.324218-3.726562-8.324218-8.324219c0-4.601562 3.726562-8.328125 8.324218-8.328125s8.328125 3.726563 8.328125 8.328125zm0 0"/><path d="m286.265625 253.050781c0 4.597657-3.726563 8.324219-8.324219 8.324219-4.601562 0-8.328125-3.726562-8.328125-8.324219 0-4.601562 3.726563-8.328125 8.328125-8.328125 4.597656 0 8.324219 3.726563 8.324219 8.328125zm0 0"/><path d="m256.277344 323.667969c-1.640625 1.03125-2.660156 1.226562-3.066406 1.179687-.214844-.1875-.621094-.640625-.929688-.980468-1.503906-1.675782-3.78125-4.203126-7.976562-5.546876-4.726563-1.511718-8.15625-.257812-10.421876.570313-1.414062.515625-2.527343.925781-4.59375.953125-2.144531.015625-3.125-.363281-4.605468-.957031-2.164063-.863281-5.429688-2.164063-10.246094-1.207031-4.691406.9375-7.351562 3.242187-9.292969 4.925781-1.289062 1.117187-2 1.734375-3.449219 2.191406-1.960937.621094-4.242187.582031-6.785156-.117187-3.996094-1.09375-8.121094 1.253906-9.214844 5.25-1.09375 3.996093 1.253907 8.121093 5.25 9.214843 2.660157.730469 5.261719 1.09375 7.789063 1.09375 2.578125 0 5.078125-.378906 7.480469-1.136719 4.410156-1.398437 7.027344-3.664062 8.757812-5.167968 1.433594-1.242188 1.679688-1.402344 2.394532-1.542969.457031-.089844.457031-.089844 1.753906.425781 2.085937.832032 5.242187 2.074219 10.363281 2.023438 4.621094-.0625 7.585937-1.144532 9.546875-1.863282.273438-.097656.609375-.222656.859375-.304687.210937.113281.476563.378906 1.242187 1.226563 1.496094 1.664062 4 4.445312 8.546876 5.527343 4.675781 1.113281 9.582031.082031 14.582031-3.0625 3.507812-2.207031 4.5625-6.835937 2.355469-10.34375-2.207032-3.503906-6.835938-4.554687-10.339844-2.351562zm0 0"/></svg>