<?xml version="1.0" ?><!DOCTYPE svg  PUBLIC '-//W3C//DTD SVG 1.1//EN'  'http://www.w3.org/Graphics/SVG/1.1/DTD/svg11.dtd'><svg enable-background="new 0 0 512 512" height="512px" id="Clipper" version="1.1" viewBox="0 0 512 512" width="512px" xml:space="preserve" xmlns="http://www.w3.org/2000/svg" xmlns:xlink="http://www.w3.org/1999/xlink"><g><path d="M341.922,282.746c-1.863,0-3.707,0.097-5.527,0.269v-13.354c0-31.416-18.094-59.588-46.432-72.86V77.614   c0-18.759-15.262-34.02-34.02-34.02s-34.02,15.261-34.02,34.02v119.19c-0.563,0.266-1.123,0.536-1.677,0.813   c-27.606,13.771-44.754,41.378-44.754,72.044v13.344c-1.784-0.163-3.588-0.259-5.414-0.259h-6v161.811   c0,13.15,10.698,23.849,23.848,23.849h17.149c13.15,0,23.848-10.698,23.848-23.849V341.591c0-13.655-4.689-26.229-12.524-36.226   v-35.704c0-21.806,17.739-39.544,39.543-39.544c21.805,0,39.543,17.738,39.543,39.544v35.85   c-7.766,9.973-12.408,22.491-12.408,36.08v102.966c0,13.15,10.697,23.849,23.848,23.849h17.148   c13.15,0,23.848-10.698,23.848-23.849V282.746H341.922z M277.963,77.614v41.472l-5.039-5.04c-7.08-7.08-10.98-16.494-10.98-26.508   V56.432C271.178,59.052,277.963,67.553,277.963,77.614z M216.923,341.591v102.966c0,6.533-5.315,11.849-11.848,11.849h-17.149   c-6.533,0-11.848-5.315-11.848-11.849v-78.992v-70.436c3.983,0.511,7.806,1.535,11.414,2.985   c6.474,2.604,12.235,6.608,16.908,11.643c6.267,6.752,10.574,15.345,12,24.871C216.74,336.901,216.923,339.226,216.923,341.591z    M250.142,218.452c-25.699,2.893-45.742,24.749-45.742,51.209v24.176c-5.092-3.67-10.783-6.558-16.908-8.459v-15.717   c0-26.088,14.604-49.578,38.111-61.306c1.503-0.75,3.049-1.451,4.594-2.084l3.726-1.526v-49.042l5.86,5.859   c6.68,6.68,10.358,15.561,10.358,25.008V218.452z M262.143,218.503V186.57c0-12.652-4.928-24.547-13.875-33.493l-14.345-14.346   V77.614c0-10.062,6.786-18.563,16.02-21.183v31.106c0,13.219,5.148,25.646,14.495,34.993l13.525,13.524v68.689l3.725,1.526   c25.943,10.627,42.707,35.509,42.707,63.39v15.752c-6.127,1.916-11.818,4.819-16.908,8.506v-24.258   C307.486,243.338,287.65,221.575,262.143,218.503z M335.922,365.564v78.992c0,6.533-5.314,11.849-11.848,11.849h-17.148   c-6.533,0-11.848-5.315-11.848-11.849V341.591c0-2.082,0.145-4.131,0.408-6.143c1.289-9.795,5.617-18.641,12-25.568   c4.666-5.063,10.428-9.095,16.908-11.719c3.641-1.476,7.502-2.516,11.527-3.032V365.564z"/><rect height="12.119" width="12" x="249.943" y="130.807"/></g></svg>